# xmcd
#
# Track frame offsets:
#	150
#	29327
#	50297
#	60555
#	74532
#	97687
#	110100
#	126152
#	144462
#	161362
#	199895
#	221387
#	239695
#	267160
#
# Disc length: 3686 seconds
#
# Revision: 2
# Processed by: cddbd v1.5.1PL0 Copyright (c) Steve Scherf et al.
# Submitted via: CDmax 2.0
#
DISCID=cb0e640e
DTITLE=Simpson, Martin - Smoke and Mirrors
DYEAR=1900
DGENRE=Blues
TTITLE0=Poormouth
TTITLE1=See That My Grave Is Kept Clean
TTITLE2=Broke Down Engine
TTITLE3=New Kitchen Blues
TTITLE4=Hard Love
TTITLE5=I Want My Crown
TTITLE6=Will This House Be Blessed
TTITLE7=Delia
TTITLE8=Lock, Stock and Barrel
TTITLE9=Spoonful
TTITLE10=Me and My Chauffeur
TTITLE11=Big Road Blues
TTITLE12=Road Kill
TTITLE13=Gone Fishing
EXTD=
EXTT0=
EXTT1=
EXTT2=
EXTT3=
EXTT4=
EXTT5=
EXTT6=
EXTT7=
EXTT8=
EXTT9=
EXTT10=
EXTT11=
EXTT12=
EXTT13=
PLAYORDER=
